<?xml version="1.0" standalone="no"?><!DOCTYPE svg PUBLIC "-//W3C//DTD SVG 1.1//EN" "http://www.w3.org/Graphics/SVG/1.1/DTD/svg11.dtd"><svg t="1560875930454" class="icon" style="" viewBox="0 0 1024 1024" version="1.1" xmlns="http://www.w3.org/2000/svg" p-id="7167" xmlns:xlink="http://www.w3.org/1999/xlink" width="200" height="200"><defs><style type="text/css">@font-face { font-family: rbicon; src: url("chrome-extension://dipiagiiohfljcicegpgffpbnjmgjcnf/fonts/rbicon.woff2") format("woff2"); font-weight: normal; font-style: normal; }
</style></defs><path d="M512 307.2C279.893333 307.2 34.133333 252.586667 34.133333 153.6S279.893333 0 512 0s477.866667 54.613333 477.866667 153.6S744.106667 307.2 512 307.2z m0-273.066667C249.173333 34.133333 68.266667 95.573333 68.266667 153.6S249.173333 273.066667 512 273.066667s443.733333-61.44 443.733333-119.466667S774.826667 34.133333 512 34.133333z" fill="" p-id="7168"></path><path d="M512 1024C228.693333 1024 0 795.306667 0 512S228.693333 0 512 0s512 228.693333 512 512-228.693333 512-512 512z m0-989.866667C249.173333 34.133333 34.133333 249.173333 34.133333 512s215.04 477.866667 477.866667 477.866667 477.866667-215.04 477.866667-477.866667S774.826667 34.133333 512 34.133333z" fill="" p-id="7169"></path><path d="M512 819.2c-105.813333 0-201.386667-54.613333-259.413333-139.946667-3.413333-6.826667-3.413333-17.066667 6.826666-23.893333 6.826667-3.413333 17.066667-3.413333 23.893334 6.826667 51.2 78.506667 136.533333 126.293333 228.693333 126.293333 95.573333 0 180.906667-47.786667 232.106667-126.293333 3.413333-6.826667 17.066667-10.24 23.893333-6.826667 6.826667 3.413333 10.24 17.066667 6.826667 23.893333C716.8 764.586667 617.813333 819.2 512 819.2zM324.266667 512c-27.306667 0-51.2-23.893333-51.2-51.2S296.96 409.6 324.266667 409.6s51.2 23.893333 51.2 51.2-23.893333 51.2-51.2 51.2z m0-68.266667c-10.24 0-17.066667 6.826667-17.066667 17.066667s6.826667 17.066667 17.066667 17.066667 17.066667-6.826667 17.066666-17.066667-6.826667-17.066667-17.066666-17.066667zM699.733333 512c-27.306667 0-51.2-23.893333-51.2-51.2s23.893333-51.2 51.2-51.2 51.2 23.893333 51.2 51.2-23.893333 51.2-51.2 51.2z m0-68.266667c-10.24 0-17.066667 6.826667-17.066666 17.066667s6.826667 17.066667 17.066666 17.066667 17.066667-6.826667 17.066667-17.066667-6.826667-17.066667-17.066667-17.066667z" fill="" p-id="7170"></path></svg>