<?xml version="1.0" standalone="no"?><!DOCTYPE svg PUBLIC "-//W3C//DTD SVG 1.1//EN" "http://www.w3.org/Graphics/SVG/1.1/DTD/svg11.dtd"><svg t="1560862106811" class="icon" style="" viewBox="0 0 1024 1024" version="1.1" xmlns="http://www.w3.org/2000/svg" p-id="2726" xmlns:xlink="http://www.w3.org/1999/xlink" width="200" height="200"><defs><style type="text/css">@font-face { font-family: rbicon; src: url("chrome-extension://dipiagiiohfljcicegpgffpbnjmgjcnf/fonts/rbicon.woff2") format("woff2"); font-weight: normal; font-style: normal; }
</style></defs><path d="M528.384 76.223488c-236.78976 0-428.736512 191.945728-428.736512 428.736512S291.59424 933.695488 528.384 933.695488s428.736512-191.945728 428.736512-428.736512S765.17376 76.223488 528.384 76.223488zM528.384 838.42048c-184.152064 0-333.461504-149.331968-333.461504-333.461504 0-184.152064 149.30944-333.461504 333.461504-333.461504 184.128512 0 333.461504 149.30944 333.461504 333.461504C861.84448 689.088512 712.512512 838.42048 528.384 838.42048z" p-id="2727"></path><path d="M576.02048 314.409984c26.331136 0 47.637504 21.32992 47.637504 47.637504l0 190.548992c0 26.331136-21.307392 47.637504-47.637504 47.637504-26.30656 0-47.637504-21.307392-47.637504-47.637504L528.382976 362.047488C528.384 335.739904 549.71392 314.409984 576.02048 314.409984z" p-id="2728"></path><path d="M385.471488 504.96 576.02048 504.96c26.331136 0 47.637504 21.32992 47.637504 47.637504 0 26.331136-21.307392 47.637504-47.637504 47.637504L385.471488 600.235008c-26.307584 0-47.637504-21.307392-47.637504-47.637504C337.833984 526.28992 359.163904 504.96 385.471488 504.96z" p-id="2729"></path></svg>